<svg viewBox="0 0 800 520" xmlns="http://www.w3.org/2000/svg" width="800" height="520" style="font-family: sans-serif;">

  <!-- Map background -->
  <rect width="800" height="520" fill="#ece2ca"/>

  <!-- Dublin Hills -->
  <path d="M0,0 L800,0 L800,88 Q680,46 540,72 Q400,22 260,66 Q130,32 0,78 Z" fill="#c2d0a8" opacity="0.55"/>
  <text x="630" y="50" font-size="10" fill="#7a9060" text-anchor="middle" opacity="0.75">Dublin Hills</text>

  <!-- I-580 freeway -->
  <line x1="0" y1="454" x2="800" y2="454" stroke="#b4a484" stroke-width="10" stroke-linecap="round"/>
  <text x="730" y="448" font-size="9" fill="#7a6c52" text-anchor="middle">I–580</text>

  <!-- Dublin Blvd -->
  <line x1="30" y1="363" x2="790" y2="363" stroke="#c8b896" stroke-width="3.5"/>
  <text x="260" y="357" font-size="9" fill="#9a8a6a" text-anchor="middle">Dublin Blvd</text>

  <!-- Central Pkwy -->
  <line x1="200" y1="288" x2="790" y2="288" stroke="#c8b896" stroke-width="2"/>
  <text x="370" y="283" font-size="8" fill="#b0a080" text-anchor="middle">Central Pkwy</text>

  <!-- Amador Valley Blvd -->
  <line x1="30" y1="227" x2="200" y2="227" stroke="#c8b896" stroke-width="2"/>

  <!-- Gleason Dr -->
  <line x1="440" y1="121" x2="790" y2="121" stroke="#c8b896" stroke-width="2"/>
  <text x="615" y="115" font-size="8" fill="#b0a080" text-anchor="middle">Gleason Dr</text>

  <!-- Dougherty Rd -->
  <line x1="124" y1="88" x2="124" y2="468" stroke="#c8b896" stroke-width="3.5"/>

  <!-- Arnold Rd -->
  <line x1="322" y1="88" x2="322" y2="468" stroke="#c8b896" stroke-width="2"/>

  <!-- Tassajara Rd -->
  <line x1="520" y1="55" x2="520" y2="400" stroke="#c8b896" stroke-width="2.5"/>
  <text x="526" y="388" font-size="9" fill="#9a8a6a">Tassajara Rd</text>

  <!-- Fallon Rd -->
  <line x1="750" y1="88" x2="750" y2="400" stroke="#c8b896" stroke-width="2"/>
  <text x="756" y="230" font-size="9" fill="#9a8a6a">Fallon Rd</text>

  <!-- Emerald Glen footprint -->
  <rect x="445" y="256" width="76" height="52" rx="10" fill="#688a74" opacity="0.2"/>

  <!-- Park 1: Splash Park (Emerald Glen) -->
  <circle cx="482" cy="280" r="9" fill="#688a74" stroke="#ece2ca" stroke-width="2.5"/>
  <text x="482" y="264" text-anchor="middle" font-size="11" font-weight="500" fill="#333">Splash Park</text>

  <!-- Park 2: Soccer Park (Fallon Sports) -->
  <circle cx="742" cy="318" r="9" fill="#688a74" stroke="#ece2ca" stroke-width="2.5"/>
  <text x="728" y="322" text-anchor="end" font-size="11" font-weight="500" fill="#333">Soccer Park</text>

  <!-- Park 3: Red Park (Shannon) -->
  <circle cx="55" cy="175" r="9" fill="#688a74" stroke="#ece2ca" stroke-width="2.5"/>
  <text x="71" y="179" text-anchor="start" font-size="11" font-weight="500" fill="#333">Red Park</text>

  <!-- Park 4: The Swings (Kolb) -->
  <circle cx="75" cy="237" r="9" fill="#688a74" stroke="#ece2ca" stroke-width="2.5"/>
  <text x="91" y="241" text-anchor="start" font-size="11" font-weight="500" fill="#333">The Swings</text>

  <!-- Park 5: Wood Park (Ted Fairfield) -->
  <circle cx="520" cy="93" r="9" fill="#688a74" stroke="#ece2ca" stroke-width="2.5"/>
  <text x="520" y="115" text-anchor="middle" font-size="11" font-weight="500" fill="#333">Wood Park</text>

  <!-- Park 6: Baseball Park (Dublin Sports Grounds) -->
  <circle cx="110" cy="410" r="9" fill="#688a74" stroke="#ece2ca" stroke-width="2.5"/>
  <text x="126" y="414" text-anchor="start" font-size="11" font-weight="500" fill="#333">Baseball Park</text>

  <!-- Attribution -->
  <text x="796" y="516" font-size="9" fill="#b0a070" text-anchor="end">Dublin, CA</text>

</svg>
